<?xml version="1.0" encoding="utf-8"?>
<!-- Generator: Adobe Illustrator 13.0.0, SVG Export Plug-In . SVG Version: 6.00 Build 14948)  -->
<!DOCTYPE svg PUBLIC "-//W3C//DTD SVG 1.0//EN" "http://www.w3.org/TR/2001/REC-SVG-20010904/DTD/svg10.dtd">
<svg version="1.0" id="Ebene_1" xmlns="http://www.w3.org/2000/svg" xmlns:xlink="http://www.w3.org/1999/xlink" x="0px" y="0px"
	 width="900px" height="600px" viewBox="0 0 900 600" enable-background="new 0 0 900 600" xml:space="preserve">
<rect x="-0.5" y="-0.5" fill="#5B92E5" width="900" height="600"/>
<path fill-rule="evenodd" clip-rule="evenodd" fill="#FFFFFF" d="M581.333,250.165c2.018,0,3.123,1.111,3.123,2.037v121.527
	c0,1.019-1.23,2.285-3.123,2.335c-1.895,0.037-3.088-1.366-3.088-2.335V252.201C578.245,251.406,579.314,250.165,581.333,250.165
	 M569.974,252.201c0-4.986,5.354-10.221,11.52-10.221s11.645,5.315,11.645,10.221v121.527c0,6.508-5.727,10.619-11.805,10.619
	c-6.08,0-11.359-3.925-11.359-10.619V252.201z M516.198,252.201c0-4.887,5.65-10.221,11.611-10.221
	c5.949,0,11.557,5.16,11.557,10.221v31.527h-8.688v-31.527c0-0.913-1.695-2.037-2.869-2.037c-1.18,0-2.918,1.124-2.918,2.037
	v122.259c0,1.255,1.676,2.335,2.918,2.335c1.236,0,2.869-0.969,2.869-2.335v-36.389h8.688v36.389
	c0,6.583-5.514,10.619-11.557,10.619c-6.047,0-11.611-4.123-11.611-10.619V252.201z M463.253,252.201
	c0-5.26,4.795-10.221,10.773-10.221c5.98,0,11.434,4.726,11.434,10.221v31.527h-8.801v-31.527c0-0.944-1.061-2.037-2.445-2.037
	c-1.248,0-2.689,1.136-2.689,2.037v23.243c0,8.284,4.217,21.61,7.619,33.133c3.404,11.535,6.85,26.525,6.85,34.784v31.099
	c0,7.129-5.439,10.619-11.482,10.619c-6.041,0-11.258-3.949-11.258-10.619v-36.389h8.271v36.389c0,1.155,1.223,2.335,2.986,2.335
	c1.77,0,2.801-1.13,2.801-2.335v-31.099c0-8.259-3.98-23.82-7.172-34.784s-6.887-24.849-6.887-33.133V252.201z M413.205,241.98
	h19.076v7.545h-9.153v55.532h9.153v7.853h-9.153v64.222h12.612v7.948h-22.535V241.98z M359.427,241.98h9.812l5.912,66.598V241.98
	h7.438v143.1h-7.438l-8.694-85.193v85.193h-7.029V241.98z M305.651,241.98h8.867l0.1,132.48c0,1.305,1.124,2.335,2.664,2.335
	c1.359,0,2.552-1.03,2.552-2.335l-0.1-132.48h9.085l0.1,132.48c0,6.508-5.347,10.619-11.581,10.619s-11.588-3.949-11.588-10.619
	L305.651,241.98z M251.178,439.279h396.643v13.14H251.178V439.279z M269.094,415.409h360.974v13.935H269.094V415.409z
	 M287.574,392.345h324.708v13.935H287.574V392.345z M287.574,222.736h324.708v13.438H287.574V222.736z M314.766,211.537
	l134.715-41.6l132.795,41.6h-39.041l-93.754-29.031l-95.227,29.031H314.766z M287.574,196.754l161.908-50.175l162.801,50.175v14.783
	l-162.801-49.278l-161.908,49.278V196.754z"/>
</svg>
